<svg xmlns="http://www.w3.org/2000/svg" version="1.1" xmlns:xlink="http://www.w3.org/1999/xlink" xmlns:svgjs="http://svgjs.dev/svgjs" width="128" height="128" viewBox="0 0 128 128"><g transform="matrix(0.8046875,0,0,0.8046875,12.5,12.5)"><svg viewBox="0 0 200 200" data-background-color="#ffffff" preserveAspectRatio="xMidYMid meet" height="128" width="128" xmlns="http://www.w3.org/2000/svg" xmlns:xlink="http://www.w3.org/1999/xlink"><g id="tight-bounds" transform="matrix(1,0,0,1,0,0)"><svg viewBox="0 0 200 200" height="200" width="200"><g><svg></svg></g><g><svg viewBox="0 0 200 200" height="200" width="200"><g><path d="M0 200l0-200 200 0 0 200z" fill="#ffffff" fill-rule="nonzero" stroke="none" stroke-width="1" stroke-linecap="butt" stroke-linejoin="miter" stroke-miterlimit="10" stroke-dasharray="" stroke-dashoffset="0" font-family="none" font-weight="none" font-size="none" text-anchor="none" style="mix-blend-mode: normal" data-fill-palette-color="tertiary"></path></g><g transform="matrix(1,0,0,1,82.60771428571428,69.1)"><svg viewBox="0 0 34.78457142857143 61.8" height="61.8" width="34.78457142857143"><g><svg viewBox="0 0 34.78457142857143 61.8" height="61.8" width="34.78457142857143"><g><svg viewBox="0 0 34.78457142857143 61.8" height="61.8" width="34.78457142857143"><g><svg viewBox="0 0 34.78457142857143 61.8" height="61.8" width="34.78457142857143"><g><svg viewBox="0 0 34.78457142857143 61.8" height="61.8" width="34.78457142857143"><g transform="matrix(1,0,0,1,0,0)"><svg width="34.78457142857143" viewBox="1.3 -35 19.7 35" height="61.8" data-palette-color="#ffffff"><path d="M21-35L21-32.75 4.4 0 1.95 0 18.4-32.75 1.3-32.75 1.3-35 21-35Z" opacity="1" transform="matrix(1,0,0,1,0,0)" fill="#000000" class="undefined-text-0" data-fill-palette-color="quaternary" id="text-0"></path></svg></g></svg></g></svg></g></svg></g><g></g></svg></g></svg></g></svg></g><defs></defs></svg><rect width="200" height="200" fill="none" stroke="none" visibility="hidden"></rect></g></svg></g></svg>