<svg xmlns="http://www.w3.org/2000/svg" version="1.1" xmlns:xlink="http://www.w3.org/1999/xlink" xmlns:svgjs="http://svgjs.dev/svgjs" width="2000" height="1250" viewBox="0 0 2000 1250"><g transform="matrix(1,0,0,1,0,0)"><svg viewBox="0 0 512 320" data-background-color="#ffffff" preserveAspectRatio="xMidYMid meet" height="1250" width="2000" xmlns="http://www.w3.org/2000/svg" xmlns:xlink="http://www.w3.org/1999/xlink"><g id="tight-bounds" transform="matrix(1,0,0,1,0,0)"><svg viewBox="0 0 512 320" height="320" width="512"><g><svg></svg></g><g><svg viewBox="0 0 512 320" height="320" width="512"><g><path xmlns="http://www.w3.org/2000/svg" d="M96 320l0-320 320 0 0 320z" fill="#000000" fill-rule="nonzero" stroke="none" stroke-width="1" stroke-linecap="butt" stroke-linejoin="miter" stroke-miterlimit="10" stroke-dasharray="" stroke-dashoffset="0" font-family="none" font-weight="none" font-size="none" text-anchor="none" style="mix-blend-mode: normal" data-fill-palette-color="tertiary"></path></g><g transform="matrix(1,0,0,1,154.52918474951588,80)"><svg viewBox="0 0 202.94163050096827 160" height="160" width="202.94163050096827"><g><svg viewBox="0 0 231.552 182.55653070562687" height="160" width="202.94163050096827"><g><svg viewBox="0 0 231.552 182.55653070562687" height="182.55653070562687" width="231.552"><g id="textblocktransform"><svg viewBox="0 0 231.552 182.55653070562687" height="182.55653070562687" width="231.552" id="textblock"><g><rect width="231.552" height="7.46796049161954" x="0" y="91.60810335457624" fill="#ffffff" opacity="1" stroke-width="0" stroke="transparent" fill-opacity="1" class="rect-o-0" data-fill-palette-color="quaternary" rx="1%" id="o-0" data-palette-color="#ffffff"></rect></g><g transform="matrix(1,0,0,1,0.5759999999999934,0)"><svg viewBox="0 0 230.4 82.81076769690925" height="82.81076769690925" width="230.4"><g transform="matrix(1,0,0,1,0,0)"><svg width="230.4" viewBox="1.2999999523162842 -35.5 100.28999328613281 36.04999923706055" height="82.81076769690925" data-palette-color="#ffffff"><path d="M21-35L21-32.75 4.4 0 1.95 0 18.4-32.75 1.3-32.75 1.3-35 21-35ZM36.5-35L48.15 0 45.75 0 41.45-12.8 29.45-12.8 25.25 0 22.9 0 34.4-35 36.5-35ZM30.15-15L40.85-15 35.45-31.35 30.15-15ZM52.8-8.9Q52.95-7.15 54.1-5.45 55.25-3.75 57.35-2.68 59.45-1.6 62.25-1.6L62.25-1.6Q66.4-1.6 69.12-3.45 71.84-5.3 71.84-9.35L71.84-9.35Q71.84-11.65 70.52-13.15 69.2-14.65 67.25-15.55 65.3-16.45 62-17.6L62-17.6Q58.5-18.8 56.4-19.8 54.3-20.8 52.85-22.53 51.4-24.25 51.4-26.9L51.4-26.9Q51.4-29.1 52.65-31.08 53.9-33.05 56.42-34.27 58.95-35.5 62.65-35.5L62.65-35.5Q65.09-35.5 66.7-35.15 68.3-34.8 69.95-34L69.95-34 69.25-31.85Q66.4-33.3 62.75-33.3L62.75-33.3Q58.75-33.3 56.25-31.6 53.75-29.9 53.75-26.75L53.75-26.75Q53.75-24.9 54.95-23.63 56.15-22.35 57.92-21.55 59.7-20.75 62.85-19.7L62.85-19.7Q66.5-18.45 68.77-17.35 71.05-16.25 72.65-14.35 74.25-12.45 74.25-9.5L74.25-9.5Q74.25-4.9 71.32-2.18 68.4 0.55 62.3 0.55L62.3 0.55Q58.6 0.55 55.97-0.83 53.35-2.2 51.97-4.38 50.6-6.55 50.5-8.9L50.5-8.9 52.8-8.9ZM89.99-35.05Q95.64-35.05 98.62-31.95 101.59-28.85 101.59-23.7L101.59-23.7 101.59-10Q101.59 0 90.99 0L90.99 0 80.59 0 80.59-35.05 89.99-35.05ZM82.84-2.05L90.29-2.05Q94.14-2.05 96.74-3.58 99.34-5.1 99.34-9.85L99.34-9.85 99.34-23.95Q99.34-27.05 98.07-29.08 96.79-31.1 94.77-32.02 92.74-32.95 90.49-32.95L90.49-32.95 82.84-32.95 82.84-2.05Z" opacity="1" transform="matrix(1,0,0,1,0,0)" fill="#ffffff" class="undefined-text-0" data-fill-palette-color="quaternary" id="text-0"></path></svg></g></svg></g><g transform="matrix(1,0,0,1,0,107.87339950386277)"><svg viewBox="0 0 230.4 74.68313120176407" height="74.68313120176407" width="230.4"><g transform="matrix(1,0,0,1,0,0)"><svg width="230.4" viewBox="4 -29.399999618530273 90.69999694824219 29.399999618530273" height="74.68313120176407" data-palette-color="#ffffff"><path d="M14.05 0L4.5 0 4.5-25.4 4-29.4 16.1-29.4 24.9-11.9 33.9-29.4 45.35-29.4 45.35 0 35.8 0 35.8-16.85 35.25-16.85 33.15-11.45 29.5-3 20.4-3 16.6-11.45 14.55-16.85 14.05-16.85 14.05 0ZM63.4 0L53.85 0 53.85-25.4 53.35-29.4 65.45-29.4 74.25-11.9 83.25-29.4 94.7-29.4 94.7 0 85.15 0 85.15-16.85 84.6-16.85 82.5-11.45 78.85-3 69.75-3 65.95-11.45 63.9-16.85 63.4-16.85 63.4 0Z" opacity="1" transform="matrix(1,0,0,1,0,0)" fill="#ffffff" class="undefined-text-1" data-fill-palette-color="quaternary" id="text-1"></path></svg></g></svg></g></svg></g></svg></g><g></g></svg></g></svg></g></svg></g><defs></defs></svg><rect width="512" height="320" fill="none" stroke="none" visibility="hidden"></rect></g></svg></g></svg>